<?xml version="1.0" encoding="utf-8"?>
<!-- Generator: Adobe Illustrator 14.0.0, SVG Export Plug-In . SVG Version: 6.00 Build 43363)  -->
<!DOCTYPE svg PUBLIC "-//W3C//DTD SVG 1.1//EN" "http://www.w3.org/Graphics/SVG/1.1/DTD/svg11.dtd">
<svg version="1.1" id="레이어_1" xmlns="http://www.w3.org/2000/svg" xmlns:xlink="http://www.w3.org/1999/xlink" x="0px"
	 y="0px" width="12px" height="12px" viewBox="0 0 12 12" enable-background="new 0 0 12 12" xml:space="preserve">
<g id="XMLID_1_">
	<g>
		<g>
			<polygon fill="#FFFFFF" points="11.761,1.563 10.088,10.029 9.996,4.031 6.9,5.893 6.903,12.005 0.429,6.345 5.822,9.205 
				5.771,5.909 0.239,2.881 8.406,-0.005 3.321,3.085 6.323,4.681 			"/>
		</g>
	</g>
	<g>
		<g>
			<polygon fill="#FFFFFF" points="11.761,1.563 10.088,10.029 9.996,4.031 6.9,5.893 6.903,12.005 0.429,6.345 5.822,9.205 
				5.771,5.909 0.239,2.881 8.406,-0.005 3.321,3.085 6.323,4.681 			"/>
		</g>
	</g>
	<g>
		<g>
			<polygon fill="none" stroke="#000000" stroke-width="0.25" points="11.761,1.563 10.088,10.029 9.996,4.031 6.9,5.893 
				6.903,12.005 0.429,6.345 5.822,9.205 5.771,5.909 0.239,2.881 8.406,-0.005 3.321,3.085 6.323,4.681 			"/>
		</g>
	</g>
</g>
</svg>
