<?xml version="1.0" encoding="utf-8"?>
<!-- Generator: Adobe Illustrator 14.0.0, SVG Export Plug-In . SVG Version: 6.00 Build 43363)  -->
<!DOCTYPE svg PUBLIC "-//W3C//DTD SVG 1.1//EN" "http://www.w3.org/Graphics/SVG/1.1/DTD/svg11.dtd">
<svg version="1.1" xmlns="http://www.w3.org/2000/svg" xmlns:xlink="http://www.w3.org/1999/xlink" x="0px" y="0px" width="12px"
	 height="12px" viewBox="0 0 12 12" enable-background="new 0 0 12 12" xml:space="preserve">
<g id="레이어_1">
	<g>
		<path fill="#F1F2F2" stroke="#000000" stroke-width="0.25" d="M8.729,8.186C8.606,7.925,8.424,7.689,8.18,7.48
			c-0.244-0.21-0.519-0.379-0.824-0.506C7.051,6.847,6.731,6.752,6.4,6.69C5.414,6.52,4.493,6.149,3.639,5.577
			C3.565,5.532,3.487,5.436,3.404,5.288S3.28,4.999,3.28,4.863c0-0.499,0.072-0.998,0.216-1.5C3.64,2.862,3.824,2.47,4.049,2.187
			c0.361-0.47,1.012-0.881,1.952-1.232C6.94,0.604,7.999,0.428,9.176,0.428c0.703,0,1.246,0.063,1.63,0.187
			c0.383,0.125,0.575,0.317,0.575,0.578c0,0.425-0.051,0.753-0.15,0.986c-0.101,0.232-0.208,0.386-0.322,0.463
			c-0.115,0.077-0.316,0.18-0.604,0.31C9.996,3.076,9.729,3.207,9.502,3.342C9.274,3.479,9.08,3.609,8.92,3.733
			C8.758,3.858,8.658,3.92,8.619,3.92c-0.049,0-0.073-0.023-0.073-0.068c0-0.096,0.087-0.242,0.26-0.438
			c0.174-0.195,0.387-0.367,0.642-0.514C9.715,2.736,9.85,2.632,9.85,2.586c0-0.074-0.149-0.11-0.447-0.11
			c-0.903,0-1.738,0.093-2.504,0.28C6.131,2.943,5.527,3.189,5.085,3.496C4.643,3.801,4.422,4.113,4.422,4.43
			c0,0.198,0.091,0.338,0.275,0.42C4.88,4.933,5.284,5.07,5.909,5.263s1.184,0.414,1.677,0.663c0.708,0.351,1.233,0.717,1.575,1.096
			C9.503,7.4,9.674,7.826,9.674,8.296c0,0.323-0.067,0.647-0.201,0.973c-0.135,0.325-0.331,0.624-0.59,0.896
			c-0.259,0.271-0.557,0.495-0.894,0.671c-0.288,0.142-0.65,0.275-1.088,0.399c-0.437,0.124-0.911,0.222-1.421,0.293
			s-0.997,0.106-1.461,0.106c-0.854,0-1.542-0.094-2.062-0.28c-0.521-0.187-0.78-0.47-0.78-0.85c0-0.17,0.088-0.435,0.264-0.794
			c0.176-0.36,0.383-0.603,0.623-0.727c0.21-0.097,0.413-0.152,0.608-0.166s0.293,0.013,0.293,0.08c0,0.018-0.007,0.035-0.022,0.051
			C2.928,8.967,2.911,8.98,2.892,8.992S2.853,9.016,2.833,9.026C2.735,9.072,2.656,9.107,2.595,9.133S2.485,9.184,2.448,9.209
			C2.412,9.234,2.394,9.27,2.394,9.315c0,0.118,0.505,0.179,1.516,0.179c0.879,0,1.599-0.037,2.161-0.111
			C6.632,9.31,7.127,9.176,7.557,8.984C7.986,8.791,8.377,8.525,8.729,8.186z"/>
	</g>
	<g>
	</g>
</g>
<g id="레이어_2">
	<g>
	</g>
	<g>
	</g>
</g>
</svg>
