<svg width="35" height="35" viewBox="0 0 35 35" fill="none" xmlns="http://www.w3.org/2000/svg">
<path d="M17.5 35C27.165 35 35 27.165 35 17.5C35 7.83502 27.165 0 17.5 0C7.83502 0 0 7.83502 0 17.5C0 27.165 7.83502 35 17.5 35Z" fill="#444444"/>
<path d="M17.3093 8.56396C13.7253 8.56396 10.3233 8.24196 9.02134 11.581C8.48234 12.96 8.55934 14.745 8.55934 17.314C8.55934 19.561 8.48934 21.675 9.02134 23.04C10.3163 26.379 13.7463 26.057 17.3093 26.057C20.8723 26.057 24.2813 26.414 25.5973 23.04C26.1363 21.647 26.0593 19.883 26.0593 17.314C26.0593 13.898 26.2483 11.693 24.5893 10.034C22.9093 8.35396 20.6413 8.56396 17.3093 8.56396ZM16.5253 10.139C24.0013 10.125 24.9533 9.29896 24.4283 20.842C24.2393 24.923 21.1313 24.475 17.3093 24.475C10.3373 24.475 10.1413 24.279 10.1413 17.307C10.1413 10.335 10.6943 10.146 16.5253 10.139ZM21.9783 11.588C21.3973 11.588 20.9283 12.057 20.9283 12.638C20.9283 13.219 21.3973 13.688 21.9783 13.688C22.5593 13.688 23.0283 13.219 23.0283 12.638C23.0283 12.057 22.5593 11.588 21.9783 11.588ZM17.3093 12.813C14.8313 12.813 12.8153 14.822 12.8153 17.307C12.8153 19.792 14.8243 21.801 17.3093 21.801C19.7943 21.801 21.7963 19.792 21.7963 17.307C21.7963 14.822 19.7873 12.813 17.3093 12.813ZM17.3093 14.388C21.1663 14.388 21.1663 20.219 17.3093 20.219C13.4523 20.219 13.4523 14.388 17.3093 14.388Z" fill="#DDDDDD"/>
</svg>
