<svg width="35" height="35" viewBox="0 0 35 35" fill="none" xmlns="http://www.w3.org/2000/svg">
<path d="M17.5 35C27.165 35 35 27.165 35 17.5C35 7.83502 27.165 0 17.5 0C7.83502 0 0 7.83502 0 17.5C0 27.165 7.83502 35 17.5 35Z" fill="#444444"/>
<g clip-path="url(#clip0_4815_4786)">
<path d="M25.5679 12.3993C24.9362 11.6484 23.7699 11.3421 21.5426 11.3421H13.4573C11.1789 11.3421 9.9929 11.6682 9.36357 12.4676C8.75 13.2471 8.75 14.3956 8.75 15.9852V19.0149C8.75 22.0944 9.478 23.6579 13.4573 23.6579H21.5426C23.4742 23.6579 24.5445 23.3876 25.2369 22.725C25.947 22.0454 26.25 20.9358 26.25 19.0149V15.9852C26.25 14.3089 26.2025 13.1536 25.5679 12.3993ZM19.9851 17.9183L16.3136 19.8372C16.2315 19.8801 16.1417 19.9014 16.0521 19.9014C15.9506 19.9014 15.8493 19.874 15.7596 19.8197C15.5907 19.7174 15.4876 19.5343 15.4876 19.3368V15.5114C15.4876 15.3143 15.5904 15.1314 15.759 15.029C15.9276 14.9266 16.1373 14.9196 16.3123 15.0105L19.9838 16.917C20.1706 17.014 20.2879 17.2068 20.2881 17.4172C20.2884 17.6278 20.1716 17.8209 19.9851 17.9183Z" fill="#DDDDDD"/>
</g>
<defs>
<clipPath id="clip0_4815_4786">
<rect width="17.5" height="17.5" fill="white" transform="translate(8.75 8.75)"/>
</clipPath>
</defs>
</svg>
