<svg width="35" height="35" viewBox="0 0 35 35" fill="none" xmlns="http://www.w3.org/2000/svg">
<g id="Capa_1" clip-path="url(#clip0_4815_4723)">
<path id="Vector" d="M17.5 35C27.165 35 35 27.165 35 17.5C35 7.83502 27.165 0 17.5 0C7.83502 0 0 7.83502 0 17.5C0 27.165 7.83502 35 17.5 35Z" fill="#444444"/>
<g id="Group">
<path id="Vector_2" d="M10.29 26.446L16.268 19.502L21.042 26.446H26.25L19.166 16.135L25.683 8.55402H24.136L18.48 15.134L13.958 8.55402H8.75L15.582 18.501L8.75 26.446H10.29Z" fill="#DDDDDD"/>
<path id="Vector_3" d="M18.361 17.066L24.136 25.333H21.763L17.045 18.585L16.352 17.598L10.843 9.716H13.216L17.661 16.079L18.354 17.066H18.361Z" fill="#444444"/>
</g>
</g>
<defs>
<clipPath id="clip0_4815_4723">
<rect width="35" height="35" fill="white"/>
</clipPath>
</defs>
</svg>
