<svg width="24" height="24" viewBox="0 0 24 24" fill="none" xmlns="http://www.w3.org/2000/svg">
    <path d="M8.64638 9.14704C8.74014 9.0533 8.8673 9.00064 8.99988 9.00064C9.13246 9.00064 9.25962 9.0533 9.35338 9.14704L10.0074 9.80054C10.3329 9.42632 10.5108 8.94622 10.5076 8.45025C10.5044 7.95427 10.3204 7.47649 9.99014 7.10647C9.65985 6.73646 9.20594 6.49962 8.7135 6.44037C8.22107 6.38113 7.72393 6.50354 7.31531 6.78465C6.90668 7.06577 6.61462 7.48628 6.4939 7.96735C6.37317 8.44842 6.43207 8.957 6.65954 9.39775C6.88702 9.83849 7.26745 10.1811 7.72951 10.3614C8.19156 10.5417 8.70352 10.5473 9.16938 10.377L8.64638 9.85404C8.55264 9.76027 8.49999 9.63312 8.49999 9.50054C8.49999 9.36795 8.55264 9.2408 8.64638 9.14704Z" fill="#272727"/>
    <path d="M13.4549 3.55514C12.6991 2.79636 11.7791 2.22139 10.7658 1.87462C9.75252 1.52784 8.67311 1.41854 7.61089 1.55514C6.47094 1.70057 5.38437 2.12458 4.44721 2.78969C3.51005 3.4548 2.75117 4.34053 2.23763 5.3686C1.72409 6.39666 1.47171 7.5354 1.50281 8.68417C1.5339 9.83294 1.8475 10.9564 2.41589 11.9551C2.4839 12.0666 2.50863 12.1992 2.48539 12.3276L2.11439 14.0921C2.07918 14.2601 2.08776 14.4342 2.13931 14.5979C2.19086 14.7615 2.28364 14.9091 2.40874 15.0265C2.53384 15.1439 2.68704 15.2272 2.85362 15.2683C3.0202 15.3094 3.19454 15.3069 3.35989 15.2611L5.11339 14.7741C5.23944 14.7431 5.37248 14.7587 5.48789 14.8181C6.4296 15.268 7.46024 15.5009 8.50389 15.4996C8.85782 15.4995 9.21127 15.4734 9.56139 15.4216C10.8402 15.2259 12.0398 14.6796 13.027 13.8434C14.0142 13.0072 14.7503 11.9138 15.1536 10.6845C15.5569 9.45524 15.6117 8.13825 15.3118 6.87974C15.012 5.62123 14.3692 4.47045 13.4549 3.55514ZM11.3549 11.1461C11.4026 11.1923 11.4407 11.2474 11.4669 11.3084C11.4931 11.3694 11.5069 11.4351 11.5075 11.5014C11.5081 11.5678 11.4954 11.6337 11.4703 11.6951C11.4452 11.7566 11.408 11.8124 11.3611 11.8593C11.3141 11.9063 11.2583 11.9434 11.1969 11.9686C11.1354 11.9937 11.0696 12.0063 11.0032 12.0058C10.9368 12.0052 10.8712 11.9914 10.8102 11.9652C10.7492 11.939 10.694 11.9009 10.6479 11.8531L9.92989 11.1366C9.26361 11.5034 8.48384 11.6064 7.74517 11.4252C7.00651 11.2441 6.36289 10.792 5.94192 10.1585C5.52095 9.52511 5.35337 8.75662 5.4724 8.00544C5.59143 7.25425 5.98838 6.57522 6.58455 6.10297C7.18072 5.63071 7.93259 5.39972 8.69107 5.45579C9.44956 5.51185 10.1593 5.85088 10.6795 6.40566C11.1998 6.96044 11.4926 7.69046 11.4999 8.45098C11.5072 9.2115 11.2284 9.947 10.7189 10.5116L11.3549 11.1461Z" fill="#272727"/>
    <path d="M15.0286 16.986L16.9536 16.9505L16.0001 15.043L15.0286 16.986Z" fill="#272727"/>
    <path d="M21.5949 19.5556C21.5727 19.4263 21.5976 19.2933 21.6649 19.1806C22.1873 18.253 22.4736 17.2111 22.4987 16.1468C22.5238 15.0825 22.2869 14.0283 21.8088 13.077C21.3307 12.1258 20.6261 11.3067 19.757 10.6917C18.8879 10.0768 17.881 9.68494 16.8249 9.55062C16.6949 9.53562 16.5649 9.52063 16.4349 9.51562V9.53062C16.2155 11.2531 15.44 12.8569 14.2263 14.0986C13.0126 15.3403 11.4269 16.152 9.70989 16.4106C9.64489 16.4206 9.57989 16.4306 9.51489 16.4356C9.52489 16.5706 9.53989 16.7056 9.55489 16.8406C9.74588 18.2987 10.4252 19.6491 11.4822 20.6715C12.5391 21.6939 13.9113 22.3281 15.3749 22.4706C15.5799 22.4906 15.7899 22.5006 15.9949 22.5006C16.9544 22.5019 17.9022 22.2901 18.7699 21.8806C18.8842 21.823 19.0151 21.8071 19.1399 21.8356L20.6749 22.2606C20.8396 22.3079 21.0138 22.3115 21.1803 22.2712C21.3468 22.2309 21.5 22.148 21.6249 22.0306C21.7508 21.9126 21.8441 21.764 21.8958 21.5993C21.9474 21.4347 21.9558 21.2594 21.9199 21.0906L21.5949 19.5556ZM18.7234 19.3716C18.6647 19.4015 18.6007 19.4195 18.535 19.4245C18.4693 19.4296 18.4033 19.4216 18.3407 19.4011C18.2781 19.3806 18.2202 19.3479 18.1703 19.3049C18.1204 19.2619 18.0795 19.2095 18.0499 19.1506L17.4499 17.9411L14.5244 17.9956L13.9499 19.1506C13.8902 19.2693 13.7858 19.3594 13.6597 19.4012C13.5336 19.4429 13.3961 19.4328 13.2774 19.3731C13.1587 19.3135 13.0686 19.2091 13.0269 19.083C12.9851 18.9568 12.9952 18.8193 13.0549 18.7006L15.5549 13.7006C15.6012 13.6233 15.6668 13.5592 15.7452 13.5147C15.8236 13.4703 15.9122 13.4469 16.0024 13.4469C16.0926 13.4469 16.1812 13.4703 16.2596 13.5147C16.338 13.5592 16.4036 13.6233 16.4499 13.7006L18.1999 17.2101C18.2064 17.2226 18.2129 17.2341 18.2184 17.2476L18.9499 18.7006C18.9792 18.7595 18.9966 18.8236 19.001 18.8893C19.0055 18.9549 18.997 19.0208 18.9759 19.0831C18.9549 19.1455 18.9217 19.203 18.8784 19.2525C18.8351 19.3021 18.7824 19.3425 18.7234 19.3716Z" fill="#272727"/>
</svg>
