<?xml version="1.0" encoding="UTF-8"?>
<svg id="_레이어_1" xmlns="http://www.w3.org/2000/svg" xmlns:xlink="http://www.w3.org/1999/xlink" version="1.1" viewBox="0 0 206 27">
  <!-- Generator: Adobe Illustrator 29.3.1, SVG Export Plug-In . SVG Version: 2.1.0 Build 151)  -->
  <defs>
    <style>
      .st0 {
        fill: #ebebeb;
      }

      .st1 {
        fill: #ff9200;
      }
    </style>
  </defs>
  <g>
    <path class="st0" d="M172.561,5.965h-11.501c-.798,0-1.463.665-1.463,1.529v15.822c0,.798.665,1.529,1.463,1.529h11.501c.798,0,1.463-.665,1.463-1.529V7.494c0-.864-.665-1.529-1.463-1.529ZM170.101,21.055c0,.266-.199.532-.465.532h-5.651c-.266,0-.465-.199-.465-.532v-11.368c0-.266.199-.532.465-.532h5.651c.266,0,.465.199.465.532v11.368Z"/>
    <path class="st0" d="M85.274,5.632h-11.235c-.598,0-1.064.332-1.33.864-.066.199-.133.399-.133.598h0v17.418h3.789v-7.778h6.648v7.712h3.723V7.161h0c0-.864-.665-1.529-1.463-1.529h0ZM76.299,13.743h.465c-.266,0-.465-.199-.465-.465v-3.324c0-.266.199-.465.465-.465h5.651c.266,0,.465.199.465.465v3.324c0,.266-.199.465-.465.465h.465s-6.581,0-6.581,0Z"/>
    <path class="st0" d="M117.184,5.632h-11.235c-.598,0-1.064.332-1.33.864-.066.199-.133.399-.133.598h0v17.418h3.789v-7.778h6.648v7.712h3.723V7.161h0c.066-.864-.598-1.529-1.463-1.529h0ZM114.924,13.277c0,.266-.199.465-.465.465h-5.651c-.266,0-.465-.199-.465-.465v-3.324c0-.266.199-.465.465-.465h5.651c.266,0,.465.199.465.465v3.324Z"/>
    <path class="st0" d="M131.543,24.512h3.989l-2.659-8.243h.465c.798,0,1.463-.665,1.463-1.463v-7.645h0c0-.798-.665-1.463-1.463-1.463h-11.235c-.133,0-.199,0-.332.066-.731.133-1.263.731-1.263,1.396v17.351h3.789v-8.243h4.654l2.593,8.243h-.001ZM124.231,12.746v-2.859c0-.266.199-.465.465-.465h5.784c.266,0,.465.199.465.465v2.859c0,.266-.199.465-.465.465h-5.784c-.266,0-.465-.199-.465-.465Z"/>
    <path class="st0" d="M156.274,21.055h-7.047l8.243-12.033c.133-.266.266-.532.266-.864v-.731c0-.798-.665-1.463-1.463-1.463h-12.697v3.656h8.842l-8.576,11.966h0c-.199.266-.332.532-.332.864v.731c0,.798.665,1.463,1.463,1.463h12.697v-3.656l-1.396.066h0Z"/>
    <path class="st0" d="M188.582,5.898h-2.393v11.036l-6.714-10.171h0c-.199-.532-.731-.864-1.33-.864h-.931c-.798,0-1.463.665-1.463,1.463v17.418h3.856v-10.969l6.714,10.105c.066.133.199.266.332.399l.133.133h0c.266.199.532.332.931.332h.931c.798,0,1.463-.665,1.463-1.463V5.898h-1.529,0Z"/>
    <path class="st0" d="M53.298,5.699h-11.501c-.798,0-1.463.665-1.463,1.463v14.426l2.726,2.726h2.659v2.659h3.789v-2.659h3.856c.798,0,1.463-.665,1.463-1.463V7.161c0-.798-.665-1.463-1.529-1.463h0ZM50.904,20.59c0,.266-.199.465-.465.465h-5.651c-.266,0-.465-.199-.465-.465v-11.235c0-.266.199-.465.465-.465h5.651c.266,0,.465.199.465.465v11.235Z"/>
    <path class="st1" d="M137.061,3.97l-67.277-1.595h0l-1.529-.066c-.931.066-1.33.798-1.33,1.595v4.72h0v11.634c0,.266-.199.465-.465.465h-5.651c-.266,0-.465-.199-.465-.465V5.632h-3.856v17.351h0c0,.199.066.399.133.598.266.532.731.864,1.33.864h11.235c.798,0,1.463-.665,1.463-1.463h0V5.1c0-.332.266-.665.598-.665h65.681c.133,0,.199-.133.199-.199.133-.199,0-.266-.066-.266h0Z"/>
    <path class="st0" d="M101.229,5.699h-11.235c-.798,0-1.396.598-1.463,1.33v8.044h0c0,.798.665,1.463,1.463,1.463h8.376c.266,0,.465.199.465.465v3.191c0,.266-.199.465-.465.465h-9.839l2.061,3.723h10.703c.798,0,1.463-.665,1.463-1.463v-.731h0v-7.845c0-.798-.665-1.463-1.463-1.463h-8.908.465c-.266,0-.465-.199-.465-.465v-2.46c0-.266.199-.465.465-.465h9.839v-3.723l-1.463-.066h0Z"/>
    <path class="st0" d="M203.607,21.055h-7.911v-3.789h9.174v-3.723h-9.174v-3.789h10.304l-2.061-3.723h-10.703c-.798,0-1.463.665-1.463,1.463h0v15.822h0c0,.798.665,1.463,1.463,1.463h12.697v-3.723h-2.327,0Z"/>
  </g>
  <g>
    <g>
      <path class="st1" d="M35.333,3.772c-.057-.124-.129-.24-.214-.348-.043-.053-.089-.105-.14-.155-.025-.025-.051-.05-.078-.074s-.055-.047-.083-.07c-.057-.046-.118-.09-.181-.132-.065-.042-.132-.082-.202-.12-.07-.038-.144-.074-.221-.108-.694-.307-1.646-.457-2.806-.457-.377,0-.777.016-1.197.047-.12.009-.241.019-.364.031-.062.006-.123.012-.186.018-.124.013-.251.027-.378.042-.383.046-.781.103-1.19.171-.137.023-.274.047-.413.072-.299.054-.604.114-.915.18.273.214.539.438.795.672.157-.007.311-.01.46-.01.203,0,.398.006.584.018.084.005.165.012.245.02.054.005.106.011.158.017.073.008.144.018.214.03.291.046.552.11.782.194.065.023.127.048.185.075.416.185.712.443.865.778.297.647.033,1.507-.684,2.487-.104.142-.218.287-.341.435-.531.636-1.235,1.314-2.084,2.011-.423.347-.882.699-1.373,1.051-1.98,1.424-4.491,2.876-7.319,4.173-2.934,1.345-5.774,2.323-8.205,2.886-.79.183-1.535.322-2.228.416-.703.095-1.35.144-1.93.144-.365,0-.703-.02-1.012-.058h-.007c-1.038-.131-1.746-.483-2.016-1.073-.324-.706.02-1.665.891-2.758.092-.115.19-.231.294-.349-.007-.178-.011-.356-.011-.536,0-.22.005-.439.016-.656-1.167.892-2.161,1.769-2.951,2.602-.145.152-.283.304-.414.454-.065.074-.129.149-.191.223-.124.147-.24.294-.349.438-.055.073-.108.144-.158.215-.076.107-.148.213-.216.317-.046.07-.089.139-.13.207-.613,1.015-.799,1.908-.478,2.608.057.124.129.24.214.348.043.053.089.105.14.155.025.025.051.05.078.074s.055.047.083.07c.046.037.094.073.144.105.025.018.05.035.075.051.052.033.107.065.164.096.07.038.144.075.221.108.694.307,1.646.457,2.806.457.398,0,.822-.018,1.266-.053.167-.012.337-.028.51-.046.058-.007.116-.012.175-.019.117-.013.234-.027.353-.042s.24-.031.362-.049c.061-.009.123-.017.184-.026.114-.017.23-.036.347-.055.025-.004.051-.008.077-.012.234-.039.473-.081.716-.127.131-.025.262-.051.394-.077.132-.027.266-.055.401-.084.336-.072.679-.151,1.028-.236.891-.217,1.823-.476,2.785-.775.014-.004.027-.008.041-.012,2.314-.722,4.804-1.675,7.35-2.842,2.295-1.052,4.43-2.184,6.336-3.337.215-.131.428-.262.638-.393.635-.396,1.242-.795,1.819-1.192.968-.668,1.851-1.333,2.632-1.986,2.982-2.486,4.505-4.772,3.838-6.227v-.002h-.001ZM5.042,12.835h0c.011-.007.022-.017.034-.026-.012.009-.023.017-.034.026Z"/>
      <path class="st1" d="M29.848,6.262c-.136.217-.311.459-.534.727-.493.59-1.152,1.225-1.961,1.888-.36.295-.744.592-1.15.888-.899-1.865-2.455-3.355-4.367-4.168-.486-.207-.995-.37-1.522-.484-.218-.048-.44-.087-.664-.117-.38-.052-.767-.079-1.161-.079-.499,0-.988.043-1.463.125-1.49.256-2.847.897-3.967,1.819-.681.56-1.274,1.222-1.755,1.963-.132.203-.255.411-.368.625-.251.468-.459.963-.62,1.479-.251.805-.386,1.661-.386,2.549,0,1.197.246,2.337.69,3.371-.676.152-1.322.271-1.927.353-.663.089-1.271.135-1.805.135-.329,0-.632-.017-.901-.051-.158-.02-.305-.046-.44-.077-.171-.594-.301-1.204-.388-1.829-.063-.444-.103-.895-.121-1.352-.007-.178-.011-.356-.011-.536,0-.22.005-.439.016-.656.011-.008.022-.017.034-.026-.012.009-.023.017-.034.026.02-.421.06-.838.118-1.247C6.084,5.053,11.7.028,18.489.028c2.669,0,5.158.777,7.25,2.117.353.226.694.468,1.024.724.273.214.539.438.795.672.324.295.634.606.928.932.502.556.959,1.154,1.362,1.789Z"/>
    </g>
    <path class="st1" d="M31.952,13.491c0-.847-.079-1.675-.229-2.479-.711.575-1.49,1.156-2.333,1.738-.747.514-1.547,1.032-2.38,1.539-.406,4.317-4.018,7.701-8.43,7.747h-.182c-1.809-.019-3.483-.599-4.857-1.574-.183.059-.365.117-.547.174-.984.307-1.954.577-2.882.803-.744.181-1.458.334-2.14.457,2.467,3.083,6.261,5.057,10.516,5.057.167,0,.333-.004.499-.01v.01h13.95l2.55-4.918h-6.595c1.911-2.324,3.059-5.301,3.059-8.545h0Z"/>
  </g>
</svg>