<svg width="24" height="24" viewBox="0 0 24 24" fill="none" xmlns="http://www.w3.org/2000/svg">
    <path d="M20.1201 2.9707H17.6249V5.1907C17.6249 5.6032 17.2874 5.9407 16.8749 5.9407C16.4624 5.9407 16.1249 5.6032 16.1249 5.1907V2.9707H7.87492V5.1907C7.87492 5.6032 7.53742 5.9407 7.12492 5.9407C6.71242 5.9407 6.37492 5.6032 6.37492 5.1907V2.9707H3.87977C2.63617 2.9707 1.62695 3.99305 1.62695 5.25398V7.4782H22.3729V5.25398C22.3729 3.99305 21.3637 2.9707 20.1201 2.9707Z" fill="#272727"/>
    <path d="M1.62695 8.97656V19.2614C1.62695 21.0511 3.03742 22.4991 4.7793 22.4991H19.2205C20.9624 22.4991 22.3729 21.0511 22.3729 19.2614V8.97656H1.62695ZM16.2824 13.1316L11.4974 17.9091C11.3549 18.0516 11.1599 18.1266 10.9724 18.1266C10.7774 18.1266 10.5824 18.0516 10.4399 17.9091L7.71742 15.1866C7.42492 14.8941 7.42492 14.4216 7.71742 14.1291C8.00992 13.8366 8.48992 13.8366 8.78242 14.1291L10.9724 16.3191L15.2174 12.0666C15.5099 11.7741 15.9899 11.7741 16.2824 12.0666C16.5749 12.3591 16.5749 12.8316 16.2824 13.1316Z" fill="#272727"/>
    <path d="M7.875 2.25V2.97H6.375V2.25C6.375 1.8375 6.7125 1.5 7.125 1.5C7.5375 1.5 7.875 1.8375 7.875 2.25Z" fill="#272727"/>
    <path d="M17.625 2.25V2.97H16.125V2.25C16.125 1.8375 16.4625 1.5 16.875 1.5C17.2875 1.5 17.625 1.8375 17.625 2.25Z" fill="#272727"/>
</svg>
