<svg width="55" height="55" viewBox="0 0 55 55" fill="none" xmlns="http://www.w3.org/2000/svg">
<g clip-path="url(#clip0_8872_6745)">
<path d="M29.9531 34.2953H29.7028C27.1948 34.2953 24.7281 34.3365 22.2173 34.3365C20.2098 34.3365 18.7056 32.8735 18.7056 30.866V6.57255C18.7056 4.6063 20.2538 3.10205 22.2173 3.10205H32.7113C34.7188 3.10205 36.2643 4.5238 36.2643 6.57255V30.866C36.2643 32.6645 35.0103 34.0863 33.2531 34.2953L32.6673 34.3778L34.5071 38.3928H31.7901L29.9503 34.2953H29.9531ZM28.9906 32.12L27.6101 28.8998H30.2446L31.6251 32.12L31.9606 32.0788C33.4236 31.911 33.7178 30.9925 33.7178 29.821V7.74405C33.7178 6.2398 33.2173 5.44505 31.5426 5.44505H23.4301C21.7581 5.44505 21.2548 6.19855 21.2548 7.74405V29.821C21.2548 31.3253 21.7993 32.12 23.4301 32.12H28.9906Z" fill="#F1F1F1"/>
<path d="M9.26496 50.6824V48.0341H10.1587V50.3166C10.1587 50.8446 10.3485 51.1224 10.9205 51.1224H13.7585C14.3442 51.1224 14.5202 50.8309 14.5202 50.3166V47.6079C14.5202 47.0964 14.3442 46.8021 13.7585 46.8021H10.4942C9.80671 46.8021 9.26496 46.3044 9.26496 45.6031V42.1794C9.26496 41.4919 9.80671 40.9639 10.4942 40.9639H14.1682C14.8695 40.9639 15.4112 41.4616 15.4112 42.1794V44.6241H14.5175V42.5891C14.5175 42.0611 14.3415 41.7834 13.7557 41.7834H10.9177C10.332 41.7834 10.156 42.0474 10.156 42.5891V45.2236C10.156 45.7654 10.3457 46.0294 10.9177 46.0294H14.1655C14.8667 46.0294 15.4085 46.5409 15.4085 47.2449V50.6851C15.4085 51.4029 14.8805 51.9006 14.1655 51.9006H10.4915C9.79021 51.9006 9.26221 51.3891 9.26221 50.6851L9.26496 50.6824Z" fill="#F1F1F1"/>
<path d="M19.5086 41.7834H16.8301V40.9639H23.1083V41.7834H20.4161V51.8979H19.5086V41.7834Z" fill="#F1F1F1"/>
<path d="M26.6668 40.9639H27.6761L30.8221 51.8979H29.8843L29.0648 49.2634H25.2451L24.4558 51.8979H23.5181L26.6641 40.9639H26.6668ZM28.8751 48.5016L27.1481 42.1491L25.4513 48.5016H28.8751Z" fill="#F1F1F1"/>
<path d="M32.2412 50.6824V42.1794C32.2412 41.4919 32.783 40.9639 33.4705 40.9639H37.2022C37.9035 40.9639 38.4315 41.4616 38.4315 42.1794V44.7259H37.5542V42.5891C37.5542 42.0474 37.3645 41.7834 36.7787 41.7834H33.8967C33.311 41.7834 33.135 42.0474 33.135 42.5891V50.3166C33.135 50.8446 33.3247 51.1224 33.8967 51.1224H36.7787C37.3645 51.1224 37.5542 50.8446 37.5542 50.3166V46.8049H35.621V46.0294H38.4315V50.6824C38.4315 51.4001 37.9035 51.8979 37.2022 51.8979H33.4705C32.7692 51.8979 32.2412 51.3864 32.2412 50.6824Z" fill="#F1F1F1"/>
<path d="M40.2603 40.9642H45.7328V41.7837H41.1513V46.0269H43.9453V46.8024H41.1513V51.1199H45.7328V51.8954H40.2603V40.9614V40.9642Z" fill="#F1F1F1"/>
</g>
<defs>
<clipPath id="clip0_8872_6745">
<rect width="55" height="55" rx="5" fill="white"/>
</clipPath>
</defs>
</svg>
