<svg width="30" height="30" viewBox="0 0 30 30" fill="none" xmlns="http://www.w3.org/2000/svg">
<g clip-path="url(#clip0_7555_3943)">
<path d="M23.8543 23.148L18.4639 17.7438C19.5332 16.4993 20.1797 14.8794 20.1797 13.1078C20.1797 9.18231 17.0055 6 13.0897 6C9.17383 6 6 9.18231 6 13.1078C6 17.0333 9.17418 20.2157 13.0897 20.2157C14.8803 20.2157 16.5153 19.5499 17.763 18.4525L23.1502 23.8535C23.2475 23.9511 23.3746 23.9996 23.502 23.9996C23.6295 23.9996 23.7566 23.9511 23.8539 23.8535C24.0485 23.6585 24.0485 23.3427 23.8539 23.148H23.8543ZM8.78052 17.4284C7.6294 16.2743 6.99555 14.74 6.99555 13.1078C6.99555 11.4757 7.6294 9.94136 8.78052 8.78729C9.93164 7.63323 11.462 6.99775 13.09 6.99775C14.718 6.99775 16.2484 7.63323 17.3995 8.78729C18.5506 9.94136 19.1845 11.4757 19.1845 13.1078C19.1845 14.74 18.5506 16.2743 17.3995 17.4284C16.2484 18.5824 14.718 19.2179 13.09 19.2179C11.462 19.2179 9.93164 18.5824 8.78052 17.4284Z" fill="#FF9200"/>
</g>
<defs>
<clipPath id="clip0_7555_3943">
<rect width="18" height="18" fill="white" transform="translate(6 6)"/>
</clipPath>
</defs>
</svg>
