<svg width="18" height="18" viewBox="0 0 18 18" fill="none" xmlns="http://www.w3.org/2000/svg">
<path d="M8.34618 9.16455L2.05615 15.7569C2.12678 16.0073 2.25371 16.2383 2.42724 16.4321C2.60077 16.6259 2.8163 16.7775 3.05736 16.8752C3.29842 16.973 3.55862 17.0142 3.81808 16.9959C4.07754 16.9777 4.32938 16.9003 4.55436 16.7697L11.6318 12.7374L8.34618 9.16455Z" fill="#EA4335"/>
<path d="M14.7068 8.04365L11.6462 6.29004L8.20117 9.31429L11.6602 12.7277L14.6974 10.9929C14.9665 10.8519 15.1919 10.64 15.3492 10.3801C15.5064 10.1201 15.5895 9.82207 15.5895 9.51824C15.5895 9.21441 15.5064 8.91638 15.3492 8.65644C15.1919 8.39649 14.9665 8.18456 14.6974 8.04365H14.7068Z" fill="#FBBC04"/>
<path d="M2.05626 3.24707C2.01824 3.38768 1.99932 3.53277 2.00002 3.67843V15.3253C2.0004 15.4708 2.0193 15.6158 2.05626 15.7566L8.5619 9.33305L2.05626 3.24707Z" fill="#4285F4"/>
<path d="M8.39307 9.50198L11.6459 6.29021L4.57779 2.23913C4.31189 2.08334 4.00946 2.00083 3.70131 2C3.32915 1.99927 2.96695 2.12028 2.66994 2.34461C2.37292 2.56893 2.15737 2.88426 2.05615 3.24252L8.39307 9.50198Z" fill="#34A853"/>
</svg>
