<svg width="18" height="18" viewBox="0 0 18 18" fill="none" xmlns="http://www.w3.org/2000/svg">
<path d="M11.7978 1.5C11.002 1.55531 10.0719 2.06718 9.52987 2.73374C9.03542 3.33843 8.62866 4.23655 8.78726 5.10935C9.65675 5.13654 10.5552 4.61248 11.0757 3.93467C11.5627 3.30374 11.9312 2.41124 11.7978 1.5Z" fill="#DDDDDD"/>
<path d="M14.9431 6.5323C14.179 5.56949 13.1052 5.01074 12.0911 5.01074C10.7523 5.01074 10.186 5.6548 9.25591 5.6548C8.29686 5.6548 7.56824 5.01262 6.41048 5.01262C5.27324 5.01262 4.06229 5.71105 3.29449 6.90542C2.21509 8.58728 2.39981 11.7494 4.14906 14.4429C4.77505 15.4066 5.61096 16.4904 6.70435 16.4997C7.6774 16.5091 7.95168 15.8725 9.26991 15.866C10.5881 15.8585 10.8382 16.5082 11.8093 16.4979C12.9037 16.4894 13.7853 15.2885 14.4113 14.3247C14.86 13.6338 15.027 13.286 15.375 12.506C12.844 11.5376 12.4381 7.92072 14.9431 6.5323Z" fill="#DDDDDD"/>
</svg>
